<svg width="18" height="14" viewBox="0 0 18 14" fill="none" xmlns="http://www.w3.org/2000/svg">
<path d="M9.3625 6.9125L16.0125 0.2625C15.6625 0.0875002 15.225 0 14.875 0H2.625C2.275 0 1.8375 0.0875002 1.4875 0.2625L8.1375 6.9125C8.4875 7.2625 9.0125 7.2625 9.3625 6.9125ZM17.2375 1.4875L10.5875 8.1375C9.5375 9.1875 7.875 9.1875 6.9125 8.1375L0.2625 1.4875C0.0875 1.8375 0 2.275 0 2.625V11.375C0 12.8625 1.1375 14 2.625 14H14.875C16.3625 14 17.5 12.8625 17.5 11.375V2.625C17.5 2.275 17.4125 1.8375 17.2375 1.4875Z" fill="black"/>
</svg>
