<svg width="18" height="17" viewBox="0 0 18 17" fill="none" xmlns="http://www.w3.org/2000/svg">
<path d="M17.8179 6.8073C17.907 6.36185 17.5507 5.82731 17.1052 5.82731L12.0271 5.11459L9.71077 0.481934C9.62168 0.303755 9.53259 0.214665 9.35441 0.125575C8.90896 -0.141694 8.37443 0.0364858 8.10716 0.481934L5.87992 5.11459L0.801807 5.82731C0.534538 5.82731 0.356359 5.9164 0.267269 6.09458C-0.0890896 6.45094 -0.0890896 6.98548 0.267269 7.34183L3.91994 10.9054L3.02905 15.9835C3.02905 16.1617 3.02905 16.3399 3.11814 16.5181C3.38541 16.9635 3.91994 17.1417 4.36539 16.8744L8.90896 14.469L13.4525 16.8744C13.5416 16.9635 13.7198 16.9635 13.898 16.9635C13.9871 16.9635 13.9871 16.9635 14.0762 16.9635C14.5216 16.8744 14.878 16.429 14.7889 15.8944L13.898 10.8163L17.5507 7.25275C17.7288 7.16366 17.8179 6.98548 17.8179 6.8073Z" fill="black"/>
</svg>
