<svg width="17" height="15" viewBox="0 0 17 15" fill="none" xmlns="http://www.w3.org/2000/svg">
<path d="M15.4723 8.82771L16.8572 2.73396C16.9572 2.29397 16.6228 1.875 16.1716 1.875H4.6643L4.39576 0.562207C4.32885 0.23499 4.04092 0 3.7069 0H0.703125C0.314795 0 0 0.314795 0 0.703125V1.17188C0 1.56021 0.314795 1.875 0.703125 1.875H2.75048L4.80853 11.9366C4.31616 12.2197 3.98438 12.7506 3.98438 13.3594C3.98438 14.2655 4.71891 15 5.625 15C6.53109 15 7.26562 14.2655 7.26562 13.3594C7.26562 12.9002 7.07675 12.4853 6.77273 12.1875H12.9147C12.6108 12.4853 12.4219 12.9002 12.4219 13.3594C12.4219 14.2655 13.1564 15 14.0625 15C14.9686 15 15.7031 14.2655 15.7031 13.3594C15.7031 12.7098 15.3255 12.1485 14.778 11.8827L14.9396 11.1715C15.0396 10.7315 14.7052 10.3125 14.254 10.3125H6.39015L6.1984 9.375H14.7866C15.1149 9.375 15.3995 9.14783 15.4723 8.82771Z" fill="black"/>
</svg>
