<svg width="15" height="15" viewBox="0 0 15 15" fill="none" xmlns="http://www.w3.org/2000/svg">
<path d="M14.7935 12.9685L11.8729 10.0478C11.741 9.91602 11.5623 9.84279 11.3749 9.84279H10.8974C11.7059 8.80871 12.1863 7.50806 12.1863 6.09316C12.1863 2.72727 9.45904 0 6.09315 0C2.72727 0 0 2.72727 0 6.09316C0 9.45904 2.72727 12.1863 6.09315 12.1863C7.50806 12.1863 8.80871 11.7059 9.84279 10.8974V11.3749C9.84279 11.5623 9.91602 11.741 10.0478 11.8729L12.9685 14.7935C13.2438 15.0688 13.6891 15.0688 13.9615 14.7935L14.7905 13.9645C15.0659 13.6891 15.0659 13.2438 14.7935 12.9685ZM6.09315 9.84279C4.02207 9.84279 2.34352 8.16717 2.34352 6.09316C2.34352 4.02207 4.01914 2.34352 6.09315 2.34352C8.16424 2.34352 9.84279 4.01914 9.84279 6.09316C9.84279 8.16424 8.16717 9.84279 6.09315 9.84279Z" fill="black"/>
</svg>
